<svg width="11" height="18" viewBox="0 0 11 18" fill="none" xmlns="http://www.w3.org/2000/svg">
<path d="M9.959 6.12797C9.89333 6.19267 9.81555 6.24378 9.7301 6.27837C9.64466 6.31295 9.55323 6.33035 9.46105 6.32955C9.36887 6.32875 9.27775 6.30977 9.19292 6.2737C9.10809 6.23763 9.03121 6.18518 8.96667 6.11935L5.98501 3.08404L5.86583 16.8097C5.86421 16.9956 5.78883 17.1732 5.65627 17.3035C5.5237 17.4338 5.34481 17.5061 5.15895 17.5044C4.97309 17.5028 4.79548 17.4275 4.6652 17.2949C4.53492 17.1623 4.46263 16.9834 4.46425 16.7976L4.58343 3.07187L1.5495 6.05495C1.41677 6.1854 1.23765 6.25777 1.05156 6.25616C0.865461 6.25454 0.687629 6.17907 0.557181 6.04634C0.426734 5.9136 0.354358 5.73449 0.355974 5.54839C0.35759 5.36229 0.433065 5.18446 0.565798 5.05401L4.80705 0.885777C4.87272 0.82108 4.9505 0.769973 5.03595 0.735383C5.12139 0.700793 5.21282 0.683401 5.305 0.684201C5.39718 0.685002 5.48829 0.703979 5.57313 0.740047C5.65796 0.776115 5.73484 0.828566 5.79937 0.894393L9.96761 5.13565C10.0323 5.20131 10.0834 5.2791 10.118 5.36454C10.1526 5.44999 10.17 5.54142 10.1692 5.6336C10.1684 5.72578 10.1494 5.81689 10.1133 5.90172C10.0773 5.98656 10.0248 6.06344 9.959 6.12797Z" fill="#FF903F"/>
</svg>
