<svg width="10" height="18" viewBox="0 0 10 18" fill="none" xmlns="http://www.w3.org/2000/svg">
<path d="M9.71781 12.2284C9.7825 12.294 9.83361 12.3718 9.8682 12.4573C9.90279 12.5427 9.92018 12.6341 9.91938 12.7263C9.91858 12.8185 9.8996 12.9096 9.86354 12.9944C9.82747 13.0793 9.77502 13.1562 9.70919 13.2207L5.46793 17.3889C5.40227 17.4536 5.32449 17.5047 5.23904 17.5393C5.1536 17.5739 5.06217 17.5913 4.96999 17.5905C4.87781 17.5897 4.78669 17.5707 4.70186 17.5347C4.61703 17.4986 4.54015 17.4461 4.47561 17.3803L0.307378 13.1391C0.242786 13.0733 0.191773 12.9955 0.15725 12.9101C0.122727 12.8247 0.10537 12.7333 0.10617 12.6411C0.106971 12.549 0.125912 12.4579 0.161913 12.3731C0.197914 12.2882 0.250271 12.2113 0.315994 12.1467C0.381717 12.0821 0.459518 12.0311 0.544955 11.9966C0.630393 11.9621 0.721793 11.9447 0.813939 11.9455C0.906084 11.9463 0.99717 11.9653 1.08199 12.0013C1.16682 12.0373 1.24372 12.0896 1.30831 12.1553L4.28998 15.1907L4.40916 1.46497C4.41077 1.27911 4.48616 1.1015 4.61872 0.971215C4.75129 0.840933 4.93017 0.768647 5.11604 0.770261C5.3019 0.771875 5.47951 0.847256 5.60979 0.979821C5.74007 1.11239 5.81236 1.29128 5.81074 1.47714L5.69156 15.2028L8.72549 12.2198C8.79115 12.1551 8.86893 12.1039 8.95438 12.0694C9.03983 12.0348 9.13126 12.0174 9.22344 12.0182C9.31561 12.019 9.40673 12.038 9.49156 12.074C9.57639 12.1101 9.65328 12.1625 9.71781 12.2284Z" fill="#FF903F"/>
</svg>
