<svg width="16" height="18" viewBox="0 0 16 18" fill="none" xmlns="http://www.w3.org/2000/svg">
<path fill-rule="evenodd" clip-rule="evenodd" d="M8.00021 0C8.23597 0 8.46208 0.0936552 8.62879 0.260363C8.79549 0.42707 8.88915 0.653174 8.88915 0.888934V1.82676C10.8217 2.04633 12.1471 2.97882 12.988 4.14688C13.9223 5.44294 14.2228 6.96924 14.2228 8.0004V11.1881L15.7402 12.7055C15.8644 12.8298 15.9491 12.9882 15.9834 13.1606C16.0176 13.333 16 13.5118 15.9328 13.6742C15.8655 13.8366 15.7516 13.9754 15.6054 14.0731C15.4593 14.1707 15.2875 14.2229 15.1117 14.2229H0.888744C0.712957 14.2229 0.541128 14.1707 0.394978 14.0731C0.248829 13.9754 0.134922 13.8366 0.0676558 13.6742C0.000390198 13.5118 -0.0172134 13.333 0.0170706 13.1606C0.0513546 12.9882 0.135987 12.8298 0.260268 12.7055L1.77768 11.1881V8.0004C1.77768 5.57717 2.80706 3.97709 4.14758 3.01171C5.10673 2.3219 6.19301 1.97699 7.11128 1.84454V0.888934C7.11128 0.653174 7.20494 0.42707 7.37164 0.260363C7.53835 0.0936552 7.76445 0 8.00021 0ZM4.55649 15.1119C4.66049 15.5359 4.8445 15.9919 5.14496 16.4097C5.71032 17.1929 6.6437 17.7787 8.00021 17.7787C9.35673 17.7787 10.2901 17.1938 10.8546 16.4097C11.1559 15.9919 11.3399 15.5359 11.4439 15.1119H4.55649Z" fill="#F9D0B2" fill-opacity="0.72"/>
</svg>
