<svg width="15" height="22" viewBox="0 0 15 22" fill="none" xmlns="http://www.w3.org/2000/svg">
<path fill-rule="evenodd" clip-rule="evenodd" d="M3.19741 3.31561H5.39482V18.6489H3.19741C2.61462 18.6489 2.0557 18.4182 1.64361 18.0074C1.23151 17.5966 1 17.0394 1 16.4585V5.50608C1 4.92513 1.23151 4.36798 1.64361 3.95718C2.0557 3.54639 2.61462 3.31561 3.19741 3.31561V3.31561ZM8.36351 1.13937L12.7583 2.78223C13.1773 2.93877 13.5383 3.21907 13.7931 3.58564C14.048 3.95222 14.1845 4.38761 14.1844 4.83361V17.1309C14.1845 17.5769 14.048 18.0123 13.7931 18.3789C13.5383 18.7455 13.1773 19.0258 12.7583 19.1823L8.36351 20.8252C8.03105 20.9494 7.67333 20.9915 7.32099 20.9478C6.96864 20.9041 6.63217 20.776 6.34036 20.5743C6.04855 20.3727 5.81011 20.1036 5.64544 19.79C5.48077 19.4764 5.39477 19.1277 5.39482 18.7738V3.19075C5.39477 2.83681 5.48077 2.48813 5.64544 2.17456C5.81011 1.86099 6.04855 1.59187 6.34036 1.39023C6.63217 1.18859 6.96864 1.06044 7.32099 1.01675C7.67333 0.973063 8.03105 1.01514 8.36351 1.13937V1.13937Z" stroke="white" stroke-linecap="round" stroke-linejoin="round"/>
</svg>
