<svg width="84" height="22" viewBox="0 0 84 22" fill="none" xmlns="http://www.w3.org/2000/svg">
<path d="M8.31359 17.1232C5.99626 17.1232 4.15559 16.4119 2.79159 14.9892C1.44226 13.5519 0.767592 11.5132 0.767592 8.87323C0.767592 6.26256 1.42026 4.23856 2.72559 2.80123C4.04559 1.34923 5.88626 0.623229 8.24759 0.623229C9.33293 0.623229 10.2423 0.689229 10.9756 0.821229C11.3276 0.879895 11.6209 1.05589 11.8556 1.34923C12.0903 1.64256 12.2076 1.97256 12.2076 2.33923V2.51523C12.2076 2.82323 12.0756 3.06523 11.8116 3.24123C11.5623 3.41723 11.2909 3.46856 10.9976 3.39523C10.2789 3.20456 9.47226 3.10923 8.57759 3.10923C7.12559 3.10923 5.98159 3.60789 5.14559 4.60523C4.32426 5.60256 3.91359 7.02523 3.91359 8.87323C3.91359 10.7066 4.33893 12.1292 5.18959 13.1412C6.05493 14.1386 7.20626 14.6372 8.64359 14.6372C9.61159 14.6372 10.4403 14.5492 11.1296 14.3732C11.4229 14.2999 11.6943 14.3512 11.9436 14.5272C12.2076 14.7032 12.3396 14.9452 12.3396 15.2532V15.4072C12.3396 15.7739 12.2223 16.1039 11.9876 16.3972C11.7676 16.6759 11.4743 16.8446 11.1076 16.9032C10.2716 17.0499 9.34026 17.1232 8.31359 17.1232ZM21.9981 8.30123C21.5728 7.68523 20.9274 7.37723 20.0621 7.37723C19.1968 7.37723 18.5441 7.68523 18.1041 8.30123C17.6788 8.90256 17.4661 9.86323 17.4661 11.1832C17.4661 12.5032 17.6788 13.4712 18.1041 14.0872C18.5441 14.6886 19.1968 14.9892 20.0621 14.9892C20.9274 14.9892 21.5728 14.6886 21.9981 14.0872C22.4381 13.4712 22.6581 12.5032 22.6581 11.1832C22.6581 9.86323 22.4381 8.90256 21.9981 8.30123ZM24.1541 15.5832C23.1861 16.6099 21.8221 17.1232 20.0621 17.1232C18.3021 17.1232 16.9308 16.6099 15.9481 15.5832C14.9801 14.5419 14.4961 13.0752 14.4961 11.1832C14.4961 9.29123 14.9801 7.83189 15.9481 6.80523C16.9308 5.76389 18.3021 5.24323 20.0621 5.24323C21.8221 5.24323 23.1861 5.76389 24.1541 6.80523C25.1368 7.83189 25.6281 9.29123 25.6281 11.1832C25.6281 13.0752 25.1368 14.5419 24.1541 15.5832ZM34.8458 8.30123C34.4204 7.68523 33.7751 7.37723 32.9098 7.37723C32.0444 7.37723 31.3918 7.68523 30.9518 8.30123C30.5264 8.90256 30.3138 9.86323 30.3138 11.1832C30.3138 12.5032 30.5264 13.4712 30.9518 14.0872C31.3918 14.6886 32.0444 14.9892 32.9098 14.9892C33.7751 14.9892 34.4204 14.6886 34.8458 14.0872C35.2858 13.4712 35.5058 12.5032 35.5058 11.1832C35.5058 9.86323 35.2858 8.90256 34.8458 8.30123ZM37.0018 15.5832C36.0338 16.6099 34.6698 17.1232 32.9098 17.1232C31.1498 17.1232 29.7784 16.6099 28.7958 15.5832C27.8278 14.5419 27.3438 13.0752 27.3438 11.1832C27.3438 9.29123 27.8278 7.83189 28.7958 6.80523C29.7784 5.76389 31.1498 5.24323 32.9098 5.24323C34.6698 5.24323 36.0338 5.76389 37.0018 6.80523C37.9844 7.83189 38.4758 9.29123 38.4758 11.1832C38.4758 13.0752 37.9844 14.5419 37.0018 15.5832ZM42.1106 16.9032C41.7732 16.9032 41.4799 16.7786 41.2306 16.5292C40.9812 16.2799 40.8566 15.9866 40.8566 15.6492V1.65723C40.8566 1.31989 40.9812 1.02656 41.2306 0.777228C41.4799 0.527894 41.7732 0.403227 42.1106 0.403227H42.5506C42.8879 0.403227 43.1812 0.527894 43.4306 0.777228C43.6799 1.02656 43.8046 1.31989 43.8046 1.65723V10.1272C43.8046 10.1419 43.8119 10.1492 43.8266 10.1492H43.8486L47.1926 6.38723C47.7352 5.77123 48.4246 5.46323 49.2606 5.46323H50.1846C50.4192 5.46323 50.5806 5.57323 50.6686 5.79323C50.7712 6.01323 50.7419 6.21123 50.5806 6.38723L46.5546 10.8312C46.4812 10.9192 46.4812 11.0146 46.5546 11.1172L50.6246 15.9572C50.7859 16.1479 50.8079 16.3532 50.6906 16.5732C50.5879 16.7932 50.4192 16.9032 50.1846 16.9032H49.2606C48.4246 16.9032 47.7426 16.5806 47.2146 15.9352L43.8486 11.8652C43.8486 11.8506 43.8412 11.8432 43.8266 11.8432C43.8119 11.8432 43.8046 11.8506 43.8046 11.8652V15.6492C43.8046 15.9866 43.6799 16.2799 43.4306 16.5292C43.1812 16.7786 42.8879 16.9032 42.5506 16.9032H42.1106ZM55.0571 16.9032C54.7197 16.9032 54.4264 16.7786 54.1771 16.5292C53.9277 16.2799 53.8031 15.9866 53.8031 15.6492V6.71723C53.8031 6.37989 53.9277 6.08656 54.1771 5.83723C54.4264 5.58789 54.7197 5.46323 55.0571 5.46323H55.6291C55.9664 5.46323 56.2597 5.58789 56.5091 5.83723C56.7584 6.08656 56.8831 6.37989 56.8831 6.71723V15.6492C56.8831 15.9866 56.7584 16.2799 56.5091 16.5292C56.2597 16.7786 55.9664 16.9032 55.6291 16.9032H55.0571ZM55.0571 3.04323C54.7197 3.04323 54.4264 2.91856 54.1771 2.66923C53.9277 2.41989 53.8031 2.12656 53.8031 1.78923V1.65723C53.8031 1.31989 53.9277 1.02656 54.1771 0.777228C54.4264 0.527894 54.7197 0.403227 55.0571 0.403227H55.6291C55.9664 0.403227 56.2597 0.527894 56.5091 0.777228C56.7584 1.02656 56.8831 1.31989 56.8831 1.65723V1.78923C56.8831 2.12656 56.7584 2.41989 56.5091 2.66923C56.2597 2.91856 55.9664 3.04323 55.6291 3.04323H55.0571ZM61.8307 16.9032C61.4933 16.9032 61.2 16.7786 60.9507 16.5292C60.7013 16.2799 60.5767 15.9866 60.5767 15.6492V6.71723C60.5767 6.37989 60.7013 6.08656 60.9507 5.83723C61.2 5.58789 61.4933 5.46323 61.8307 5.46323H62.1167C62.4687 5.46323 62.762 5.58789 62.9967 5.83723C63.246 6.0719 63.378 6.36523 63.3927 6.71723V6.87123C63.3927 6.8859 63.4 6.89323 63.4147 6.89323C63.4293 6.89323 63.444 6.8859 63.4587 6.87123C64.456 5.78589 65.622 5.24323 66.9567 5.24323C68.2913 5.24323 69.2593 5.62456 69.8607 6.38723C70.4767 7.13523 70.7847 8.38923 70.7847 10.1492V15.6492C70.7847 15.9866 70.66 16.2799 70.4107 16.5292C70.1613 16.7786 69.868 16.9032 69.5307 16.9032H69.1567C68.8193 16.9032 68.526 16.7786 68.2767 16.5292C68.042 16.2799 67.9247 15.9866 67.9247 15.6492V10.3692C67.9247 9.26923 67.778 8.52123 67.4847 8.12523C67.206 7.71456 66.7 7.50923 65.9667 7.50923C65.3653 7.50923 64.808 7.7659 64.2947 8.27923C63.7813 8.79256 63.5247 9.34256 63.5247 9.92923V15.6492C63.5247 15.9866 63.4 16.2799 63.1507 16.5292C62.9013 16.7786 62.608 16.9032 62.2707 16.9032H61.8307ZM78.3676 7.44323C76.7543 7.44323 75.9476 8.61656 75.9476 10.9632C75.9476 12.1806 76.1603 13.0899 76.5856 13.6912C77.0256 14.2926 77.6196 14.5932 78.3676 14.5932C79.0276 14.5932 79.5923 14.3586 80.0616 13.8892C80.5456 13.4199 80.7876 12.8699 80.7876 12.2392V9.86323C80.7876 9.18856 80.5456 8.61656 80.0616 8.14723C79.5923 7.6779 79.0276 7.44323 78.3676 7.44323ZM77.4436 16.7932C76.1529 16.7932 75.0969 16.2799 74.2756 15.2532C73.4543 14.2119 73.0436 12.7819 73.0436 10.9632C73.0436 9.14456 73.4323 7.73656 74.2096 6.73923C75.0016 5.74189 76.0796 5.24323 77.4436 5.24323C78.1329 5.24323 78.7416 5.36789 79.2696 5.61723C79.7976 5.86656 80.3183 6.28456 80.8316 6.87123C80.8463 6.8859 80.8609 6.89323 80.8756 6.89323C80.8903 6.89323 80.8976 6.8859 80.8976 6.87123V6.71723C80.9123 6.36523 81.0443 6.0719 81.2936 5.83723C81.5429 5.58789 81.8436 5.46323 82.1956 5.46323H82.4376C82.7749 5.46323 83.0609 5.58789 83.2956 5.83723C83.5449 6.08656 83.6696 6.37989 83.6696 6.71723V16.0232C83.6696 19.9832 81.6896 21.9632 77.7296 21.9632C77.0256 21.9632 76.2849 21.9046 75.5076 21.7872C75.1556 21.7286 74.8623 21.5526 74.6276 21.2592C74.4076 20.9806 74.2976 20.6579 74.2976 20.2912C74.2976 19.9979 74.4149 19.7632 74.6496 19.5872C74.8989 19.4259 75.1703 19.3819 75.4636 19.4552C76.1676 19.6312 76.9009 19.7192 77.6636 19.7192C78.7489 19.7192 79.5409 19.4332 80.0396 18.8612C80.5383 18.3039 80.7876 17.3799 80.7876 16.0892V15.4072C80.7876 15.3926 80.7803 15.3852 80.7656 15.3852C80.7509 15.3852 80.7363 15.3926 80.7216 15.4072C79.8416 16.3312 78.7489 16.7932 77.4436 16.7932Z" fill="#FF7070"/>
</svg>
