<svg width="52" height="17" viewBox="0 0 52 17" fill="none" xmlns="http://www.w3.org/2000/svg">
<path d="M1.67468 15.9032C1.35268 15.9032 1.07268 15.7842 0.834682 15.5462C0.596682 15.3082 0.477682 15.0282 0.477682 14.7062V1.7702C0.477682 1.4482 0.596682 1.1682 0.834682 0.930197C1.07268 0.692198 1.35268 0.573198 1.67468 0.573198H2.51468C2.83668 0.573198 3.11668 0.692198 3.35468 0.930197C3.59268 1.1682 3.71168 1.4482 3.71168 1.7702V14.7062C3.71168 15.0282 3.59268 15.3082 3.35468 15.5462C3.11668 15.7842 2.83668 15.9032 2.51468 15.9032H1.67468ZM11.7875 6.8732C10.1775 6.8732 9.37249 8.0632 9.37249 10.4432C9.37249 11.6332 9.58949 12.5292 10.0235 13.1312C10.4575 13.7192 11.0455 14.0132 11.7875 14.0132C12.4455 14.0132 13.0125 13.7962 13.4885 13.3622C13.9645 12.9282 14.2025 12.4312 14.2025 11.8712V9.0152C14.2025 8.4552 13.9645 7.9582 13.4885 7.5242C13.0125 7.0902 12.4455 6.8732 11.7875 6.8732ZM10.9475 16.1132C9.70149 16.1132 8.66549 15.6092 7.83949 14.6012C7.01349 13.5792 6.60049 12.1932 6.60049 10.4432C6.60049 8.6372 6.99249 7.2442 7.77649 6.2642C8.57449 5.2702 9.63149 4.7732 10.9475 4.7732C12.1375 4.7732 13.1875 5.2072 14.0975 6.0752C14.1115 6.0892 14.1255 6.0962 14.1395 6.0962C14.1535 6.0962 14.1605 6.0892 14.1605 6.0752V1.3502C14.1605 1.0282 14.2795 0.748198 14.5175 0.510197C14.7555 0.272197 15.0355 0.153197 15.3575 0.153197H15.7775C16.0995 0.153197 16.3795 0.272197 16.6175 0.510197C16.8555 0.748198 16.9745 1.0282 16.9745 1.3502V14.7062C16.9745 15.0282 16.8555 15.3082 16.6175 15.5462C16.3795 15.7842 16.0995 15.9032 15.7775 15.9032H15.5465C15.2105 15.9032 14.9235 15.7912 14.6855 15.5672C14.4615 15.3292 14.3425 15.0422 14.3285 14.7062L14.3075 14.5592C14.3075 14.5452 14.3005 14.5382 14.2865 14.5382C14.2725 14.5382 14.2585 14.5452 14.2445 14.5592C13.3205 15.5952 12.2215 16.1132 10.9475 16.1132ZM24.4384 6.7262C23.7244 6.7262 23.1714 6.9292 22.7794 7.3352C22.4014 7.7272 22.1634 8.3642 22.0654 9.2462C22.0654 9.3582 22.1214 9.4142 22.2334 9.4142H26.3494C26.4614 9.4142 26.5174 9.3582 26.5174 9.2462C26.4614 7.5662 25.7684 6.7262 24.4384 6.7262ZM24.9634 16.1132C23.1294 16.1132 21.7154 15.6372 20.7214 14.6852C19.7414 13.7192 19.2514 12.3052 19.2514 10.4432C19.2514 8.5952 19.6924 7.1882 20.5744 6.2222C21.4564 5.2562 22.7304 4.7732 24.3964 4.7732C27.5044 4.7732 29.1004 6.5372 29.1844 10.0652C29.1984 10.4012 29.0794 10.6812 28.8274 10.9052C28.5754 11.1292 28.2814 11.2412 27.9454 11.2412H22.2124C22.0864 11.2412 22.0374 11.3042 22.0654 11.4302C22.1634 12.3682 22.4714 13.0542 22.9894 13.4882C23.5214 13.9082 24.2914 14.1182 25.2994 14.1182C25.9294 14.1182 26.6294 14.0132 27.3994 13.8032C27.6514 13.7332 27.8824 13.7752 28.0924 13.9292C28.3164 14.0832 28.4284 14.2932 28.4284 14.5592C28.4284 14.8812 28.3304 15.1682 28.1344 15.4202C27.9524 15.6582 27.7074 15.8052 27.3994 15.8612C26.6154 16.0292 25.8034 16.1132 24.9634 16.1132ZM36.5952 10.6532C34.5932 10.6532 33.5922 11.2692 33.5922 12.5012C33.5922 12.9492 33.7182 13.3132 33.9702 13.5932C34.2362 13.8732 34.5722 14.0132 34.9782 14.0132C35.7762 14.0132 36.4202 13.7682 36.9102 13.2782C37.4002 12.7742 37.6452 12.0882 37.6452 11.2202V10.8422C37.6452 10.7162 37.5822 10.6532 37.4562 10.6532H36.5952ZM34.2222 16.1132C33.2702 16.1132 32.4792 15.8052 31.8492 15.1892C31.2332 14.5592 30.9252 13.7472 30.9252 12.7532C30.9252 11.5352 31.3872 10.5902 32.3112 9.9182C33.2492 9.2462 34.6772 8.9102 36.5952 8.9102H37.4562C37.5822 8.9102 37.6452 8.8472 37.6452 8.7212V8.5532C37.6452 7.9092 37.4912 7.4612 37.1832 7.2092C36.8752 6.9432 36.3292 6.8102 35.5452 6.8102C34.7332 6.8102 33.7392 6.9572 32.5632 7.2512C32.3112 7.3212 32.0802 7.2792 31.8702 7.1252C31.6602 6.9572 31.5552 6.7402 31.5552 6.4742C31.5552 6.1522 31.6532 5.8652 31.8492 5.6132C32.0452 5.3472 32.2972 5.1862 32.6052 5.1302C33.6692 4.8922 34.6702 4.7732 35.6082 4.7732C37.4002 4.7732 38.6532 5.0952 39.3672 5.7392C40.0812 6.3832 40.4382 7.5102 40.4382 9.1202V14.7062C40.4382 15.0282 40.3192 15.3082 40.0812 15.5462C39.8572 15.7842 39.5842 15.9032 39.2622 15.9032H39.0312C38.6952 15.9032 38.4082 15.7912 38.1702 15.5672C37.9322 15.3292 37.8062 15.0422 37.7922 14.7062V14.4122C37.7922 14.3982 37.7852 14.3912 37.7712 14.3912C37.7432 14.3912 37.7292 14.3982 37.7292 14.4122C36.8752 15.5462 35.7062 16.1132 34.2222 16.1132ZM46.7756 11.4932C45.3056 11.1712 44.2556 10.7302 43.6256 10.1702C43.0096 9.6102 42.7016 8.8822 42.7016 7.9862C42.7016 6.9782 43.0726 6.1942 43.8146 5.6342C44.5706 5.0602 45.6836 4.7732 47.1536 4.7732C48.0776 4.7732 48.9946 4.8572 49.9046 5.0252C50.2126 5.0812 50.4576 5.2352 50.6396 5.4872C50.8356 5.7252 50.9336 6.0052 50.9336 6.3272C50.9336 6.5932 50.8286 6.8102 50.6186 6.9782C50.4086 7.1322 50.1706 7.1742 49.9046 7.1042C49.1206 6.9082 48.2946 6.8102 47.4266 6.8102C46.1666 6.8102 45.5366 7.1602 45.5366 7.8602C45.5366 8.1962 45.6556 8.4762 45.8936 8.7002C46.1316 8.9242 46.5376 9.0992 47.1116 9.2252C48.7216 9.5472 49.8206 9.9812 50.4086 10.5272C51.0106 11.0732 51.3116 11.8712 51.3116 12.9212C51.3116 13.9292 50.9336 14.7132 50.1776 15.2732C49.4216 15.8332 48.3226 16.1132 46.8806 16.1132C45.9426 16.1132 44.9836 16.0012 44.0036 15.7772C43.6956 15.7072 43.4436 15.5462 43.2476 15.2942C43.0516 15.0282 42.9536 14.7272 42.9536 14.3912C42.9536 14.1252 43.0586 13.9222 43.2686 13.7822C43.4926 13.6422 43.7306 13.6072 43.9826 13.6772C44.8926 13.9292 45.7536 14.0552 46.5656 14.0552C47.8396 14.0552 48.4766 13.6772 48.4766 12.9212C48.4766 12.5572 48.3506 12.2702 48.0986 12.0602C47.8606 11.8502 47.4196 11.6612 46.7756 11.4932Z" fill="#2BCD89"/>
</svg>
