<svg width="59" height="18" viewBox="0 0 59 18" fill="none" xmlns="http://www.w3.org/2000/svg">
<path d="M1.51489 16.9032C1.17755 16.9032 0.884222 16.7786 0.634888 16.5292C0.385555 16.2799 0.260888 15.9866 0.260888 15.6492V2.09723C0.260888 1.75989 0.385555 1.46656 0.634888 1.21723C0.884222 0.967895 1.17755 0.843228 1.51489 0.843228H2.06489C2.44622 0.843228 2.79822 0.945895 3.12089 1.15123C3.44355 1.35656 3.67822 1.62789 3.82489 1.96523L7.67489 10.2812C7.67489 10.2959 7.68222 10.3032 7.69689 10.3032C7.71156 10.3032 7.71889 10.2959 7.71889 10.2812L11.5689 1.96523C11.7156 1.62789 11.9502 1.35656 12.2729 1.15123C12.5956 0.945895 12.9476 0.843228 13.3289 0.843228H13.9669C14.3042 0.843228 14.5976 0.967895 14.8469 1.21723C15.0962 1.46656 15.2209 1.75989 15.2209 2.09723V15.6492C15.2209 15.9866 15.0962 16.2799 14.8469 16.5292C14.5976 16.7786 14.3042 16.9032 13.9669 16.9032H13.4829C13.1456 16.9032 12.8522 16.7786 12.6029 16.5292C12.3536 16.2799 12.2289 15.9866 12.2289 15.6492V6.07923C12.2289 6.06456 12.2216 6.05723 12.2069 6.05723C12.1922 6.05723 12.1849 6.06456 12.1849 6.07923L9.54489 11.7332C9.38356 12.0706 9.13422 12.3492 8.79689 12.5692C8.47422 12.7746 8.12956 12.8772 7.76289 12.8772H7.63089C7.26422 12.8772 6.91222 12.7746 6.57489 12.5692C6.25222 12.3492 6.01022 12.0706 5.84889 11.7332L3.20889 6.07923C3.20889 6.06456 3.20156 6.05723 3.18689 6.05723C3.17222 6.05723 3.16489 6.06456 3.16489 6.07923V15.6492C3.16489 15.9866 3.04022 16.2799 2.79089 16.5292C2.54155 16.7786 2.24822 16.9032 1.91089 16.9032H1.51489ZM22.0605 17.1232C20.7698 17.1232 19.8311 16.7712 19.2445 16.0672C18.6578 15.3486 18.3645 14.1386 18.3645 12.4372V6.71723C18.3645 6.37989 18.4891 6.08656 18.7385 5.83723C18.9878 5.58789 19.2811 5.46323 19.6185 5.46323H19.9705C20.3078 5.46323 20.6011 5.58789 20.8505 5.83723C21.0998 6.08656 21.2245 6.37989 21.2245 6.71723V12.1292C21.2245 13.1559 21.3638 13.8672 21.6425 14.2632C21.9211 14.6592 22.3905 14.8572 23.0505 14.8572C23.6518 14.8572 24.2091 14.6006 24.7225 14.0872C25.2505 13.5739 25.5145 13.0239 25.5145 12.4372V6.71723C25.5145 6.37989 25.6391 6.08656 25.8885 5.83723C26.1378 5.58789 26.4311 5.46323 26.7685 5.46323H27.2085C27.5458 5.46323 27.8318 5.58789 28.0665 5.83723C28.3158 6.08656 28.4405 6.37989 28.4405 6.71723V15.6492C28.4405 15.9866 28.3158 16.2799 28.0665 16.5292C27.8318 16.7786 27.5458 16.9032 27.2085 16.9032H26.9225C26.5705 16.9032 26.2698 16.7859 26.0205 16.5512C25.7858 16.3019 25.6611 16.0012 25.6465 15.6492L25.6245 15.4952C25.6245 15.4806 25.6171 15.4732 25.6025 15.4732C25.5878 15.4732 25.5731 15.4806 25.5585 15.4952C24.5611 16.5806 23.3951 17.1232 22.0605 17.1232ZM35.4105 12.2832C33.8705 11.9459 32.7705 11.4839 32.1105 10.8972C31.4652 10.3106 31.1425 9.5479 31.1425 8.60923C31.1425 7.55323 31.5312 6.73189 32.3085 6.14523C33.1005 5.54389 34.2665 5.24323 35.8065 5.24323C36.7745 5.24323 37.7352 5.33123 38.6885 5.50723C39.0112 5.5659 39.2679 5.72723 39.4585 5.99123C39.6639 6.24056 39.7665 6.53389 39.7665 6.87123C39.7665 7.1499 39.6565 7.37723 39.4365 7.55323C39.2165 7.71456 38.9672 7.75856 38.6885 7.68523C37.8672 7.47989 37.0019 7.37723 36.0925 7.37723C34.7725 7.37723 34.1125 7.74389 34.1125 8.47723C34.1125 8.82923 34.2372 9.12256 34.4865 9.35723C34.7359 9.59189 35.1612 9.77523 35.7625 9.90723C37.4492 10.2446 38.6005 10.6992 39.2165 11.2712C39.8472 11.8432 40.1625 12.6792 40.1625 13.7792C40.1625 14.8352 39.7665 15.6566 38.9745 16.2432C38.1825 16.8299 37.0312 17.1232 35.5205 17.1232C34.5379 17.1232 33.5332 17.0059 32.5065 16.7712C32.1839 16.6979 31.9199 16.5292 31.7145 16.2652C31.5092 15.9866 31.4065 15.6712 31.4065 15.3192C31.4065 15.0406 31.5165 14.8279 31.7365 14.6812C31.9712 14.5346 32.2205 14.4979 32.4845 14.5712C33.4379 14.8352 34.3399 14.9672 35.1905 14.9672C36.5252 14.9672 37.1925 14.5712 37.1925 13.7792C37.1925 13.3979 37.0605 13.0972 36.7965 12.8772C36.5472 12.6572 36.0852 12.4592 35.4105 12.2832ZM44.7732 16.9032C44.4359 16.9032 44.1426 16.7786 43.8932 16.5292C43.6439 16.2799 43.5192 15.9866 43.5192 15.6492V6.71723C43.5192 6.37989 43.6439 6.08656 43.8932 5.83723C44.1426 5.58789 44.4359 5.46323 44.7732 5.46323H45.3452C45.6826 5.46323 45.9759 5.58789 46.2252 5.83723C46.4746 6.08656 46.5992 6.37989 46.5992 6.71723V15.6492C46.5992 15.9866 46.4746 16.2799 46.2252 16.5292C45.9759 16.7786 45.6826 16.9032 45.3452 16.9032H44.7732ZM44.7732 3.04323C44.4359 3.04323 44.1426 2.91856 43.8932 2.66923C43.6439 2.41989 43.5192 2.12656 43.5192 1.78923V1.65723C43.5192 1.31989 43.6439 1.02656 43.8932 0.777228C44.1426 0.527894 44.4359 0.403227 44.7732 0.403227H45.3452C45.6826 0.403227 45.9759 0.527894 46.2252 0.777228C46.4746 1.02656 46.5992 1.31989 46.5992 1.65723V1.78923C46.5992 2.12656 46.4746 2.41989 46.2252 2.66923C45.9759 2.91856 45.6826 3.04323 45.3452 3.04323H44.7732ZM55.1988 17.1232C53.3802 17.1232 51.9795 16.6246 50.9968 15.6272C50.0142 14.6152 49.5228 13.1339 49.5228 11.1832C49.5228 9.26189 49.9922 7.79523 50.9308 6.78323C51.8842 5.75656 53.2335 5.24323 54.9788 5.24323C55.7562 5.24323 56.5042 5.29456 57.2228 5.39723C57.5602 5.44123 57.8388 5.59523 58.0588 5.85923C58.2788 6.12323 58.3888 6.43123 58.3888 6.78323C58.3888 7.07656 58.2715 7.31123 58.0368 7.48723C57.8168 7.66323 57.5602 7.7219 57.2668 7.66323C56.6948 7.54589 56.0568 7.48723 55.3528 7.48723C54.4288 7.48723 53.7395 7.78056 53.2848 8.36723C52.8302 8.9539 52.6028 9.89256 52.6028 11.1832C52.6028 12.5032 52.8448 13.4492 53.3288 14.0212C53.8128 14.5932 54.5608 14.8792 55.5728 14.8792C56.2915 14.8792 56.9148 14.8132 57.4428 14.6812C57.7215 14.6079 57.9708 14.6592 58.1908 14.8352C58.4255 15.0112 58.5428 15.2386 58.5428 15.5172C58.5428 15.8692 58.4328 16.1772 58.2128 16.4412C58.0075 16.7052 57.7362 16.8666 57.3988 16.9252C56.6508 17.0572 55.9175 17.1232 55.1988 17.1232Z" fill="#7087FF"/>
</svg>
