<svg width="157" height="22" viewBox="0 0 157 22" fill="none" xmlns="http://www.w3.org/2000/svg">
<path d="M3.40798 3.35126V8.65326C3.40798 8.75593 3.46665 8.82193 3.58398 8.85126C4.14131 8.92459 4.68398 8.96126 5.21198 8.96126C6.39998 8.96126 7.30198 8.70459 7.91798 8.19126C8.54865 7.66326 8.86398 6.91526 8.86398 5.94726C8.86398 3.99659 7.64665 3.02126 5.21198 3.02126C4.68398 3.02126 4.14131 3.05792 3.58398 3.13126C3.46665 3.16059 3.40798 3.23393 3.40798 3.35126ZM1.60398 16.9033C1.26665 16.9033 0.973313 16.7786 0.72398 16.5293C0.489313 16.2799 0.37198 15.9866 0.37198 15.6493V2.20726C0.37198 1.85526 0.489313 1.53993 0.72398 1.26126C0.958647 0.982592 1.25198 0.828592 1.60398 0.799258C2.85065 0.681925 4.05331 0.623259 5.21198 0.623259C7.41198 0.623259 9.06198 1.06326 10.162 1.94326C11.262 2.80859 11.812 4.06993 11.812 5.72726C11.812 7.56059 11.2766 8.94659 10.206 9.88526C9.14998 10.8239 7.58065 11.2933 5.49798 11.2933C5.01398 11.2933 4.37598 11.2639 3.58398 11.2053C3.46665 11.2053 3.40798 11.2639 3.40798 11.3813V15.6493C3.40798 15.9866 3.28331 16.2799 3.03398 16.5293C2.78465 16.7786 2.49131 16.9033 2.15398 16.9033H1.60398ZM15.0056 16.9033C14.6683 16.9033 14.3749 16.7786 14.1256 16.5293C13.8763 16.2799 13.7516 15.9866 13.7516 15.6493V6.71726C13.7516 6.37993 13.8763 6.08659 14.1256 5.83726C14.3749 5.58793 14.6683 5.46326 15.0056 5.46326H15.4456C15.7829 5.46326 16.0763 5.58793 16.3256 5.83726C16.5749 6.08659 16.6996 6.37993 16.6996 6.71726V7.64126C16.6996 7.65593 16.7069 7.66326 16.7216 7.66326C16.7509 7.66326 16.7656 7.65593 16.7656 7.64126C17.1909 7.05459 17.7483 6.57793 18.4376 6.21126C19.1269 5.82993 19.8823 5.59526 20.7036 5.50726C21.0116 5.47793 21.2756 5.58059 21.4956 5.81526C21.7156 6.03526 21.8256 6.29926 21.8256 6.60726C21.8256 6.91526 21.7156 7.17926 21.4956 7.39926C21.2756 7.61926 21.0116 7.74393 20.7036 7.77326C18.1076 7.97859 16.8096 9.29859 16.8096 11.7333V15.6493C16.8096 15.9866 16.6849 16.2799 16.4356 16.5293C16.1863 16.7786 15.8929 16.9033 15.5556 16.9033H15.0056ZM30.7316 8.30126C30.3063 7.68526 29.661 7.37726 28.7956 7.37726C27.9303 7.37726 27.2776 7.68526 26.8376 8.30126C26.4123 8.90259 26.1996 9.86326 26.1996 11.1833C26.1996 12.5033 26.4123 13.4713 26.8376 14.0873C27.2776 14.6886 27.9303 14.9893 28.7956 14.9893C29.661 14.9893 30.3063 14.6886 30.7316 14.0873C31.1716 13.4713 31.3916 12.5033 31.3916 11.1833C31.3916 9.86326 31.1716 8.90259 30.7316 8.30126ZM32.8876 15.5833C31.9196 16.6099 30.5556 17.1233 28.7956 17.1233C27.0356 17.1233 25.6643 16.6099 24.6816 15.5833C23.7136 14.5419 23.2296 13.0753 23.2296 11.1833C23.2296 9.29126 23.7136 7.83193 24.6816 6.80526C25.6643 5.76393 27.0356 5.24326 28.7956 5.24326C30.5556 5.24326 31.9196 5.76393 32.8876 6.80526C33.8703 7.83193 34.3616 9.29126 34.3616 11.1833C34.3616 13.0753 33.8703 14.5419 32.8876 15.5833ZM37.8644 16.9033C37.5271 16.9033 37.2338 16.7786 36.9844 16.5293C36.7498 16.2799 36.6324 15.9866 36.6324 15.6493V6.71726C36.6324 6.37993 36.7498 6.08659 36.9844 5.83726C37.2338 5.58793 37.5271 5.46326 37.8644 5.46326H38.1724C38.5098 5.46326 38.7958 5.58059 39.0304 5.81526C39.2798 6.04993 39.4118 6.33593 39.4264 6.67326V6.82726C39.4264 6.84193 39.4338 6.84926 39.4484 6.84926C39.4778 6.84926 39.4924 6.84193 39.4924 6.82726C40.3578 5.77126 41.3331 5.24326 42.4184 5.24326C43.0784 5.24326 43.6064 5.36793 44.0024 5.61726C44.4131 5.86659 44.7724 6.30659 45.0804 6.93726C45.0804 6.95193 45.0951 6.95926 45.1244 6.95926C45.1391 6.95926 45.1538 6.95193 45.1684 6.93726C46.0924 5.80793 47.1338 5.24326 48.2924 5.24326C49.5098 5.24326 50.3824 5.57326 50.9104 6.23326C51.4531 6.89326 51.7244 8.02993 51.7244 9.64326V15.6493C51.7244 15.9866 51.5998 16.2799 51.3504 16.5293C51.1158 16.7786 50.8298 16.9033 50.4924 16.9033H50.1184C49.7811 16.9033 49.4878 16.7786 49.2384 16.5293C48.9891 16.2799 48.8644 15.9866 48.8644 15.6493V10.0833C48.8644 9.01259 48.7618 8.30859 48.5564 7.97126C48.3511 7.63393 47.9551 7.46526 47.3684 7.46526C46.9871 7.46526 46.6058 7.64126 46.2244 7.99326C45.8431 8.34526 45.6524 8.69726 45.6524 9.04926V15.6493C45.6524 15.9866 45.5278 16.2799 45.2784 16.5293C45.0291 16.7786 44.7358 16.9033 44.3984 16.9033H44.0244C43.6871 16.9033 43.3938 16.7786 43.1444 16.5293C42.9098 16.2799 42.7924 15.9866 42.7924 15.6493V10.0833C42.7924 9.02726 42.6824 8.33059 42.4624 7.99326C42.2571 7.64126 41.8611 7.46526 41.2744 7.46526C40.8931 7.46526 40.5118 7.64126 40.1304 7.99326C39.7491 8.34526 39.5584 8.69726 39.5584 9.04926V15.6493C39.5584 15.9866 39.4338 16.2799 39.1844 16.5293C38.9351 16.7786 38.6418 16.9033 38.3044 16.9033H37.8644ZM59.3218 7.44326C57.7085 7.44326 56.9018 8.61659 56.9018 10.9633C56.9018 12.1806 57.1145 13.0899 57.5398 13.6913C57.9798 14.2926 58.5738 14.5933 59.3218 14.5933C59.9818 14.5933 60.5465 14.3586 61.0158 13.8893C61.4998 13.4199 61.7418 12.8699 61.7418 12.2393V9.86326C61.7418 9.18859 61.4998 8.61659 61.0158 8.14726C60.5465 7.67793 59.9818 7.44326 59.3218 7.44326ZM58.3978 16.7933C57.1072 16.7933 56.0512 16.2799 55.2298 15.2533C54.4085 14.2119 53.9978 12.7819 53.9978 10.9633C53.9978 9.14459 54.3865 7.73659 55.1638 6.73926C55.9558 5.74193 57.0338 5.24326 58.3978 5.24326C59.0872 5.24326 59.6958 5.36793 60.2238 5.61726C60.7518 5.86659 61.2725 6.28459 61.7858 6.87126C61.8005 6.88593 61.8152 6.89326 61.8298 6.89326C61.8445 6.89326 61.8518 6.88593 61.8518 6.87126V6.71726C61.8665 6.36526 61.9985 6.07193 62.2478 5.83726C62.4972 5.58793 62.7978 5.46326 63.1498 5.46326H63.3918C63.7292 5.46326 64.0152 5.58793 64.2498 5.83726C64.4992 6.08659 64.6238 6.37993 64.6238 6.71726V16.0233C64.6238 19.9833 62.6438 21.9633 58.6838 21.9633C57.9798 21.9633 57.2392 21.9046 56.4618 21.7873C56.1098 21.7286 55.8165 21.5526 55.5818 21.2593C55.3618 20.9806 55.2518 20.6579 55.2518 20.2913C55.2518 19.9979 55.3692 19.7633 55.6038 19.5873C55.8532 19.4259 56.1245 19.3819 56.4178 19.4553C57.1218 19.6313 57.8552 19.7193 58.6178 19.7193C59.7032 19.7193 60.4952 19.4333 60.9938 18.8613C61.4925 18.3039 61.7418 17.3799 61.7418 16.0893V15.4073C61.7418 15.3926 61.7345 15.3853 61.7198 15.3853C61.7052 15.3853 61.6905 15.3926 61.6758 15.4073C60.7958 16.3313 59.7032 16.7933 58.3978 16.7933ZM68.9099 16.9033C68.5726 16.9033 68.2792 16.7786 68.0299 16.5293C67.7806 16.2799 67.6559 15.9866 67.6559 15.6493V6.71726C67.6559 6.37993 67.7806 6.08659 68.0299 5.83726C68.2792 5.58793 68.5726 5.46326 68.9099 5.46326H69.3499C69.6872 5.46326 69.9806 5.58793 70.2299 5.83726C70.4792 6.08659 70.6039 6.37993 70.6039 6.71726V7.64126C70.6039 7.65593 70.6112 7.66326 70.6259 7.66326C70.6552 7.66326 70.6699 7.65593 70.6699 7.64126C71.0952 7.05459 71.6526 6.57793 72.3419 6.21126C73.0312 5.82993 73.7866 5.59526 74.6079 5.50726C74.9159 5.47793 75.1799 5.58059 75.3999 5.81526C75.6199 6.03526 75.7299 6.29926 75.7299 6.60726C75.7299 6.91526 75.6199 7.17926 75.3999 7.39926C75.1799 7.61926 74.9159 7.74393 74.6079 7.77326C72.0119 7.97859 70.7139 9.29859 70.7139 11.7333V15.6493C70.7139 15.9866 70.5892 16.2799 70.3399 16.5293C70.0906 16.7786 69.7972 16.9033 69.4599 16.9033H68.9099ZM83.0576 11.4033C80.9603 11.4033 79.9116 12.0486 79.9116 13.3393C79.9116 13.8086 80.0436 14.1899 80.3076 14.4833C80.5863 14.7766 80.9383 14.9233 81.3636 14.9233C82.1996 14.9233 82.8743 14.6666 83.3876 14.1533C83.9009 13.6253 84.1576 12.9066 84.1576 11.9973V11.6013C84.1576 11.4693 84.0916 11.4033 83.9596 11.4033H83.0576ZM80.5716 17.1233C79.5743 17.1233 78.7456 16.8006 78.0856 16.1553C77.4403 15.4953 77.1176 14.6446 77.1176 13.6033C77.1176 12.3273 77.6016 11.3373 78.5696 10.6333C79.5523 9.92926 81.0483 9.57726 83.0576 9.57726H83.9596C84.0916 9.57726 84.1576 9.51126 84.1576 9.37926V9.20326C84.1576 8.52859 83.9963 8.05926 83.6736 7.79526C83.3509 7.51659 82.7789 7.37726 81.9576 7.37726C81.1069 7.37726 80.0656 7.53126 78.8336 7.83926C78.5696 7.91259 78.3276 7.86859 78.1076 7.70726C77.8876 7.53126 77.7776 7.30393 77.7776 7.02526C77.7776 6.68793 77.8803 6.38726 78.0856 6.12326C78.2909 5.84459 78.5549 5.67593 78.8776 5.61726C79.9923 5.36793 81.0409 5.24326 82.0236 5.24326C83.9009 5.24326 85.2136 5.58059 85.9616 6.25526C86.7096 6.92993 87.0836 8.11059 87.0836 9.79726V15.6493C87.0836 15.9866 86.9589 16.2799 86.7096 16.5293C86.4749 16.7786 86.1889 16.9033 85.8516 16.9033H85.6096C85.2576 16.9033 84.9569 16.7859 84.7076 16.5513C84.4583 16.3019 84.3263 16.0013 84.3116 15.6493V15.3413C84.3116 15.3266 84.3043 15.3193 84.2896 15.3193C84.2603 15.3193 84.2456 15.3266 84.2456 15.3413C83.3509 16.5293 82.1263 17.1233 80.5716 17.1233ZM91.2316 16.9033C90.8943 16.9033 90.601 16.7786 90.3516 16.5293C90.117 16.2799 89.9996 15.9866 89.9996 15.6493V6.71726C89.9996 6.37993 90.117 6.08659 90.3516 5.83726C90.601 5.58793 90.8943 5.46326 91.2316 5.46326H91.5396C91.877 5.46326 92.163 5.58059 92.3976 5.81526C92.647 6.04993 92.779 6.33593 92.7936 6.67326V6.82726C92.7936 6.84193 92.801 6.84926 92.8156 6.84926C92.845 6.84926 92.8596 6.84193 92.8596 6.82726C93.725 5.77126 94.7003 5.24326 95.7856 5.24326C96.4456 5.24326 96.9736 5.36793 97.3696 5.61726C97.7803 5.86659 98.1396 6.30659 98.4476 6.93726C98.4476 6.95193 98.4623 6.95926 98.4916 6.95926C98.5063 6.95926 98.521 6.95193 98.5356 6.93726C99.4596 5.80793 100.501 5.24326 101.66 5.24326C102.877 5.24326 103.75 5.57326 104.278 6.23326C104.82 6.89326 105.092 8.02993 105.092 9.64326V15.6493C105.092 15.9866 104.967 16.2799 104.718 16.5293C104.483 16.7786 104.197 16.9033 103.86 16.9033H103.486C103.148 16.9033 102.855 16.7786 102.606 16.5293C102.356 16.2799 102.232 15.9866 102.232 15.6493V10.0833C102.232 9.01259 102.129 8.30859 101.924 7.97126C101.718 7.63393 101.322 7.46526 100.736 7.46526C100.354 7.46526 99.973 7.64126 99.5916 7.99326C99.2103 8.34526 99.0196 8.69726 99.0196 9.04926V15.6493C99.0196 15.9866 98.895 16.2799 98.6456 16.5293C98.3963 16.7786 98.103 16.9033 97.7656 16.9033H97.3916C97.0543 16.9033 96.761 16.7786 96.5116 16.5293C96.277 16.2799 96.1596 15.9866 96.1596 15.6493V10.0833C96.1596 9.02726 96.0496 8.33059 95.8296 7.99326C95.6243 7.64126 95.2283 7.46526 94.6416 7.46526C94.2603 7.46526 93.879 7.64126 93.4976 7.99326C93.1163 8.34526 92.9256 8.69726 92.9256 9.04926V15.6493C92.9256 15.9866 92.801 16.2799 92.5516 16.5293C92.3023 16.7786 92.009 16.9033 91.6716 16.9033H91.2316ZM109.257 16.9033C108.92 16.9033 108.626 16.7786 108.377 16.5293C108.142 16.2799 108.025 15.9866 108.025 15.6493V6.71726C108.025 6.37993 108.142 6.08659 108.377 5.83726C108.626 5.58793 108.92 5.46326 109.257 5.46326H109.565C109.902 5.46326 110.188 5.58059 110.423 5.81526C110.672 6.04993 110.804 6.33593 110.819 6.67326V6.82726C110.819 6.84193 110.826 6.84926 110.841 6.84926C110.87 6.84926 110.885 6.84193 110.885 6.82726C111.75 5.77126 112.726 5.24326 113.811 5.24326C114.471 5.24326 114.999 5.36793 115.395 5.61726C115.806 5.86659 116.165 6.30659 116.473 6.93726C116.473 6.95193 116.488 6.95926 116.517 6.95926C116.532 6.95926 116.546 6.95193 116.561 6.93726C117.485 5.80793 118.526 5.24326 119.685 5.24326C120.902 5.24326 121.775 5.57326 122.303 6.23326C122.846 6.89326 123.117 8.02993 123.117 9.64326V15.6493C123.117 15.9866 122.992 16.2799 122.743 16.5293C122.508 16.7786 122.222 16.9033 121.885 16.9033H121.511C121.174 16.9033 120.88 16.7786 120.631 16.5293C120.382 16.2799 120.257 15.9866 120.257 15.6493V10.0833C120.257 9.01259 120.154 8.30859 119.949 7.97126C119.744 7.63393 119.348 7.46526 118.761 7.46526C118.38 7.46526 117.998 7.64126 117.617 7.99326C117.236 8.34526 117.045 8.69726 117.045 9.04926V15.6493C117.045 15.9866 116.92 16.2799 116.671 16.5293C116.422 16.7786 116.128 16.9033 115.791 16.9033H115.417C115.08 16.9033 114.786 16.7786 114.537 16.5293C114.302 16.2799 114.185 15.9866 114.185 15.6493V10.0833C114.185 9.02726 114.075 8.33059 113.855 7.99326C113.65 7.64126 113.254 7.46526 112.667 7.46526C112.286 7.46526 111.904 7.64126 111.523 7.99326C111.142 8.34526 110.951 8.69726 110.951 9.04926V15.6493C110.951 15.9866 110.826 16.2799 110.577 16.5293C110.328 16.7786 110.034 16.9033 109.697 16.9033H109.257ZM127.964 16.9033C127.627 16.9033 127.334 16.7786 127.084 16.5293C126.835 16.2799 126.71 15.9866 126.71 15.6493V6.71726C126.71 6.37993 126.835 6.08659 127.084 5.83726C127.334 5.58793 127.627 5.46326 127.964 5.46326H128.536C128.874 5.46326 129.167 5.58793 129.416 5.83726C129.666 6.08659 129.79 6.37993 129.79 6.71726V15.6493C129.79 15.9866 129.666 16.2799 129.416 16.5293C129.167 16.7786 128.874 16.9033 128.536 16.9033H127.964ZM127.964 3.04326C127.627 3.04326 127.334 2.91859 127.084 2.66926C126.835 2.41993 126.71 2.12659 126.71 1.78926V1.65726C126.71 1.31993 126.835 1.02659 127.084 0.777258C127.334 0.527925 127.627 0.403258 127.964 0.403258H128.536C128.874 0.403258 129.167 0.527925 129.416 0.777258C129.666 1.02659 129.79 1.31993 129.79 1.65726V1.78926C129.79 2.12659 129.666 2.41993 129.416 2.66926C129.167 2.91859 128.874 3.04326 128.536 3.04326H127.964ZM134.738 16.9033C134.401 16.9033 134.107 16.7786 133.858 16.5293C133.609 16.2799 133.484 15.9866 133.484 15.6493V6.71726C133.484 6.37993 133.609 6.08659 133.858 5.83726C134.107 5.58793 134.401 5.46326 134.738 5.46326H135.024C135.376 5.46326 135.669 5.58793 135.904 5.83726C136.153 6.07193 136.285 6.36526 136.3 6.71726V6.87126C136.3 6.88593 136.307 6.89326 136.322 6.89326C136.337 6.89326 136.351 6.88593 136.366 6.87126C137.363 5.78593 138.529 5.24326 139.864 5.24326C141.199 5.24326 142.167 5.62459 142.768 6.38726C143.384 7.13526 143.692 8.38926 143.692 10.1493V15.6493C143.692 15.9866 143.567 16.2799 143.318 16.5293C143.069 16.7786 142.775 16.9033 142.438 16.9033H142.064C141.727 16.9033 141.433 16.7786 141.184 16.5293C140.949 16.2799 140.832 15.9866 140.832 15.6493V10.3693C140.832 9.26926 140.685 8.52126 140.392 8.12526C140.113 7.71459 139.607 7.50926 138.874 7.50926C138.273 7.50926 137.715 7.76593 137.202 8.27926C136.689 8.79259 136.432 9.34259 136.432 9.92926V15.6493C136.432 15.9866 136.307 16.2799 136.058 16.5293C135.809 16.7786 135.515 16.9033 135.178 16.9033H134.738ZM151.275 7.44326C149.662 7.44326 148.855 8.61659 148.855 10.9633C148.855 12.1806 149.068 13.0899 149.493 13.6913C149.933 14.2926 150.527 14.5933 151.275 14.5933C151.935 14.5933 152.5 14.3586 152.969 13.8893C153.453 13.4199 153.695 12.8699 153.695 12.2393V9.86326C153.695 9.18859 153.453 8.61659 152.969 8.14726C152.5 7.67793 151.935 7.44326 151.275 7.44326ZM150.351 16.7933C149.06 16.7933 148.004 16.2799 147.183 15.2533C146.362 14.2119 145.951 12.7819 145.951 10.9633C145.951 9.14459 146.34 7.73659 147.117 6.73926C147.909 5.74193 148.987 5.24326 150.351 5.24326C151.04 5.24326 151.649 5.36793 152.177 5.61726C152.705 5.86659 153.226 6.28459 153.739 6.87126C153.754 6.88593 153.768 6.89326 153.783 6.89326C153.798 6.89326 153.805 6.88593 153.805 6.87126V6.71726C153.82 6.36526 153.952 6.07193 154.201 5.83726C154.45 5.58793 154.751 5.46326 155.103 5.46326H155.345C155.682 5.46326 155.968 5.58793 156.203 5.83726C156.452 6.08659 156.577 6.37993 156.577 6.71726V16.0233C156.577 19.9833 154.597 21.9633 150.637 21.9633C149.933 21.9633 149.192 21.9046 148.415 21.7873C148.063 21.7286 147.77 21.5526 147.535 21.2593C147.315 20.9806 147.205 20.6579 147.205 20.2913C147.205 19.9979 147.322 19.7633 147.557 19.5873C147.806 19.4259 148.078 19.3819 148.371 19.4553C149.075 19.6313 149.808 19.7193 150.571 19.7193C151.656 19.7193 152.448 19.4333 152.947 18.8613C153.446 18.3039 153.695 17.3799 153.695 16.0893V15.4073C153.695 15.3926 153.688 15.3853 153.673 15.3853C153.658 15.3853 153.644 15.3926 153.629 15.4073C152.749 16.3313 151.656 16.7933 150.351 16.7933Z" fill="#CDBD2B"/>
</svg>
