<svg width="76" height="61" viewBox="0 0 76 61" fill="none" xmlns="http://www.w3.org/2000/svg">
<path d="M70.831 0.693542H4.4326C3.31235 0.694725 2.23833 1.12036 1.44619 1.87705C0.654051 2.63375 0.208483 3.6597 0.207245 4.72983V47.3992C0.208483 48.4693 0.654051 49.4953 1.44619 50.252C2.23833 51.0087 3.31235 51.4343 4.4326 51.4355H28.9155L28.1912 54.8951H23.1449C22.8247 54.8951 22.5176 55.0166 22.2912 55.2329C22.0648 55.4492 21.9376 55.7425 21.9376 56.0484V59.5081C21.9376 59.8139 22.0648 60.1072 22.2912 60.3235C22.5176 60.5398 22.8247 60.6613 23.1449 60.6613H52.1187C52.4389 60.6613 52.746 60.5398 52.9724 60.3235C53.1988 60.1072 53.326 59.8139 53.326 59.5081V56.0484C53.326 55.7425 53.1988 55.4492 52.9724 55.2329C52.746 55.0166 52.4389 54.8951 52.1187 54.8951H47.0725L46.3481 51.4355H70.831C71.9513 51.4343 73.0253 51.0087 73.8174 50.252C74.6096 49.4953 75.0552 48.4693 75.0564 47.3992V4.72983C75.0552 3.6597 74.6096 2.63375 73.8174 1.87705C73.0253 1.12036 71.9513 0.694725 70.831 0.693542ZM50.9115 57.2016V58.3548H24.3521V57.2016H50.9115ZM30.6539 54.8951L31.3783 51.4355H43.8853L44.6097 54.8951H30.6539ZM72.6419 47.3992C72.6415 47.8578 72.4506 48.2976 72.1111 48.6219C71.7716 48.9463 71.3112 49.1286 70.831 49.129H4.4326C3.95245 49.1286 3.49208 48.9463 3.15257 48.6219C2.81305 48.2976 2.62213 47.8578 2.62173 47.3992V44.5161H72.6419V47.3992ZM72.6419 42.2097H2.62173V4.72983C2.62213 4.27117 2.81305 3.8314 3.15257 3.50707C3.49208 3.18275 3.95245 3.00038 4.4326 2.99999H70.831C71.3112 3.00038 71.7716 3.18275 72.1111 3.50707C72.4506 3.8314 72.6415 4.27117 72.6419 4.72983V42.2097Z" fill="#2BCD89"/>
</svg>
