<svg width="73" height="61" viewBox="0 0 73 61" fill="none" xmlns="http://www.w3.org/2000/svg">
<path d="M68.701 0.693542H4.44446C3.36034 0.694725 2.32097 1.12036 1.55438 1.87705C0.787797 2.63375 0.356602 3.65971 0.355404 4.72983V47.3992C0.356602 48.4693 0.787797 49.4953 1.55438 50.252C2.32097 51.0087 3.36034 51.4343 4.44446 51.4355H28.1376L27.4366 54.8952H22.5531C22.2433 54.8952 21.9461 55.0167 21.727 55.2329C21.5079 55.4492 21.3848 55.7425 21.3848 56.0484V59.5081C21.3848 59.8139 21.5079 60.1073 21.727 60.3235C21.9461 60.5398 22.2433 60.6613 22.5531 60.6613H50.5923C50.9022 60.6613 51.1994 60.5398 51.4184 60.3235C51.6376 60.1073 51.7606 59.8139 51.7606 59.5081V56.0484C51.7606 55.7425 51.6376 55.4492 51.4184 55.2329C51.1994 55.0167 50.9022 54.8952 50.5923 54.8952H45.7088L45.0079 51.4355H68.701C69.7851 51.4343 70.8245 51.0087 71.5911 50.252C72.3577 49.4953 72.7889 48.4693 72.7901 47.3992V4.72983C72.7889 3.65971 72.3577 2.63375 71.5911 1.87705C70.8245 1.12036 69.7851 0.694725 68.701 0.693542ZM49.424 57.2016V58.3548H23.7214V57.2016H49.424ZM29.8199 54.8952L30.5209 51.4355H42.6245L43.3255 54.8952H29.8199ZM70.4534 47.3992C70.4531 47.8579 70.2683 48.2976 69.9397 48.622C69.6112 48.9463 69.1657 49.1287 68.701 49.129H4.44446C3.9798 49.1287 3.53428 48.9463 3.20571 48.622C2.87715 48.2976 2.69239 47.8579 2.69201 47.3992V44.5161H70.4534V47.3992ZM70.4534 42.2097H2.69201V4.72983C2.69239 4.27117 2.87715 3.8314 3.20571 3.50707C3.53428 3.18275 3.9798 3.00038 4.44446 2.99999H68.701C69.1657 3.00038 69.6112 3.18275 69.9397 3.50707C70.2683 3.8314 70.4531 4.27117 70.4534 4.72983V42.2097Z" fill="#CDBD2B"/>
</svg>
