<svg width="75" height="75" viewBox="0 0 75 75" fill="none" xmlns="http://www.w3.org/2000/svg">
<path d="M0.22876 34.1609V33.2086C0.22876 31.1898 1.2589 29.4047 2.82691 28.3363C2.45788 28.042 2.12506 27.6955 1.84029 27.2979C0.868988 25.942 0.624962 24.1956 1.18735 22.6265C2.5455 18.8367 5.36811 13.3792 11.1023 8.90094C17.7138 3.73766 26.6284 1.03998 37.5986 0.883287C37.6091 0.883143 37.6198 0.883143 37.6303 0.883287C42.5884 0.954066 47.1814 1.55288 51.2817 2.663C51.8649 2.82085 52.2081 3.41563 52.0481 3.99123C51.8882 4.56683 51.2858 4.90588 50.7026 4.74775C46.785 3.68707 42.3816 3.1142 37.6145 3.04501C13.9252 3.38953 5.91663 15.9121 3.25217 23.3474C2.92169 24.2694 3.05897 25.2544 3.62866 26.05C4.19353 26.8386 5.0794 27.291 6.05902 27.291H69.1703C70.1536 27.291 71.0441 26.8361 71.6132 26.0426C72.1756 25.2589 72.3138 24.2923 71.9925 23.3911C70.0501 17.9427 65.5893 10.5597 55.3698 6.32911C54.8121 6.09817 54.5495 5.46491 54.7834 4.91439C55.0174 4.36372 55.6594 4.10497 56.2166 4.33561C61.1927 6.39556 65.3566 9.37175 68.5922 13.1814C70.973 15.9845 72.8121 19.1781 74.0582 22.6735C74.6184 24.245 74.3788 25.9285 73.4003 27.292C73.1154 27.6893 72.7766 28.0379 72.3992 28.3345C73.9688 29.4028 75 31.1888 75 33.2086V34.1609C75 37.015 72.9425 39.4035 70.2148 39.9575L70.2367 46.4121C72.9533 46.9744 75 49.3568 75 52.203V53.1553C75 56.0078 72.9447 58.3951 70.2192 58.9508C70.2926 60.0883 70.2549 61.9343 69.5905 63.9882C67.7996 69.5237 62.9496 72.16 59.1964 73.3967C57.032 74.1098 54.7205 74.4715 52.3262 74.4715H22.9024C20.5081 74.4715 18.1968 74.1098 16.0324 73.3967C12.2791 72.1598 7.42899 69.5237 5.63828 63.9882C4.97381 61.9345 4.93613 60.0883 5.00959 58.9508C2.2841 58.3952 0.22876 56.0078 0.22876 53.1553V52.203C0.22876 49.3492 2.28658 46.9627 5.01397 46.4089V39.9575C2.28629 39.4036 0.22876 37.015 0.22876 34.1609ZM72.81 53.1553V52.203C72.81 50.5605 71.735 49.1641 70.2441 48.6552L70.2463 49.2922C70.2463 50.8265 69.3746 52.1861 67.9716 52.8407C66.5605 53.4991 64.9325 53.2987 63.7234 52.3179C63.1578 51.859 62.4692 51.4345 61.2712 51.4345C61.1451 51.4345 61.0264 51.4395 60.9106 51.4466V56.9113H69.005C71.1031 56.9113 72.81 55.2263 72.81 53.1553ZM29.1752 44.7005H7.20395V49.2927C7.20395 49.9928 7.58555 50.5888 8.22446 50.8867C8.8717 51.1886 9.59007 51.0995 10.1463 50.6483C10.9358 50.0078 12.0861 49.2726 13.9902 49.2726C16.3412 49.2726 17.5466 50.2151 18.6101 51.0467C19.5438 51.7769 20.2815 52.3535 21.8704 52.3535C23.4594 52.3535 24.1969 51.7769 25.1306 51.0467C26.1941 50.2153 27.3995 49.2726 29.7507 49.2726C32.1019 49.2726 33.3599 50.2563 34.3707 51.0467C35.3045 51.7769 36.042 52.3535 37.6307 52.3535C39.2196 52.3535 39.9571 51.7769 40.8907 51.0467C41.9015 50.2563 43.1596 49.2726 45.5106 49.2726C47.8618 49.2726 49.0671 50.2151 50.1307 51.0467C50.7963 51.5673 51.3648 52.0078 52.211 52.2185V46.1325C52.211 45.3429 51.5602 44.7005 50.7602 44.7005H34.3097C33.705 44.7005 33.2147 44.2166 33.2147 43.6197C33.2147 43.0227 33.705 42.5388 34.3097 42.5388H50.7604C52.768 42.5388 54.4011 44.1509 54.4011 46.1325V59.4438C54.4011 60.6194 55.3699 61.5758 56.5609 61.5758C57.7518 61.5758 58.7206 60.6194 58.7206 59.4438V46.1325C58.7206 44.1509 60.3539 42.5388 62.3613 42.5388H68.0248V40.0787H7.20395V42.5388H29.1752C29.7799 42.5388 30.2701 43.0227 30.2701 43.6197C30.2701 44.2166 29.7799 44.7005 29.1752 44.7005ZM62.3615 44.7005C61.5615 44.7005 60.9106 45.3429 60.9106 46.1325V49.2817C61.0279 49.2764 61.1472 49.2726 61.2712 49.2726C63.1746 49.2726 64.3247 50.0074 65.1138 50.6476C65.6702 51.0988 66.3886 51.188 67.0361 50.886C67.675 50.588 68.0565 49.9921 68.0565 49.2921V44.7005H62.3615ZM7.72443 63.3306C8.93771 67.081 11.9662 69.7779 16.7259 71.3461C18.6663 71.9856 20.7444 72.3098 22.9026 72.3098H52.3262C54.4844 72.3098 56.5625 71.9856 58.5029 71.3461C67.8266 68.2739 68.2171 61.4875 68.0403 59.0729H60.9104V59.4436C60.9104 61.8112 58.9592 63.7374 56.5607 63.7374C54.1622 63.7374 52.211 61.8114 52.211 59.4436V59.0729H7.19402C7.13225 59.9962 7.15444 61.5686 7.72443 63.3306ZM2.41874 52.203V53.1553C2.41874 55.2263 4.12577 56.9113 6.22389 56.9113H52.2111V54.425C50.6054 54.1721 49.6398 53.4205 48.7711 52.7412C47.8373 52.0111 47.0997 51.4345 45.5108 51.4345C43.9219 51.4345 43.1844 52.0111 42.2508 52.7412C41.2399 53.5316 39.9819 54.5153 37.6309 54.5153C35.2798 54.5153 34.0744 53.5729 33.011 52.7412C32.0772 52.0111 31.3397 51.4345 29.7508 51.4345C28.1618 51.4345 27.4243 52.0111 26.4906 52.7412C25.4271 53.5727 24.2217 54.5153 21.8705 54.5153C19.5193 54.5153 18.3139 53.5729 17.2505 52.7412C16.3167 52.0111 15.5792 51.4345 13.9903 51.4345C12.7918 51.4345 12.1029 51.8593 11.537 52.3186C10.3281 53.2993 8.70026 53.4998 7.28895 52.8414C5.88582 52.187 5.01412 50.8272 5.01412 49.2928V48.643C3.5073 49.143 2.41874 50.5494 2.41874 52.203ZM6.22375 37.917H69.005C71.1031 37.917 72.8102 36.232 72.8102 34.1609V33.2086C72.8102 31.1376 71.1031 29.4526 69.005 29.4526H6.22389C4.12577 29.4526 2.41874 31.1376 2.41874 33.2086V34.1609C2.41874 36.232 4.12563 37.917 6.22375 37.917Z" fill="#7087FF"/>
</svg>
